{
  "accessors": [
    {
      "bufferView": 2,
      "componentType": 5126,
      "count": 17891,
      "max": [
        7100.0,
        1444.7371826171875,
        10504.91015625
      ],
      "min": [
        -7100.0,
        -8561.7890625,
        -11000.0
      ],
      "type": "VEC3"
    },
    {
      "bufferView": 2,
      "byteOffset": 214692,
      "componentType": 5126,
      "count": 17891,
      "max": [
        1.0,
        1.0,
        1.0
      ],
      "min": [
        -1.0,
        -1.0,
        -1.0
      ],
      "type": "VEC3"
    },
    {
      "bufferView": 1,
      "componentType": 5126,
      "count": 17891,
      "max": [
        6600.0,
        1444.7371826171875
      ],
      "min": [
        -6600.0,
        -844.7381591796875
      ],
      "type": "VEC2"
    },
    {
      "bufferView": 0,
      "componentType": 5125,
      "count": 57807,
      "type": "SCALAR"
    },
    {
      "bufferView": 2,
      "byteOffset": 429384,
      "componentType": 5126,
      "count": 361,
      "max": [
        6516.8134765625,
        1050.0,
        8701.654296875
      ],
      "min": [
        -6516.8134765625,
        -2202.419189453125,
        -10527.5048828125
      ],
      "type": "VEC3"
    },
    {
      "bufferView": 2,
      "byteOffset": 433716,
      "componentType": 5126,
      "count": 361,
      "max": [
        1.0,
        1.0,
        1.0
      ],
      "min": [
        -1.0,
        -0.9999995827674866,
        -1.0
      ],
      "type": "VEC3"
    },
    {
      "bufferView": 1,
      "byteOffset": 143128,
      "componentType": 5126,
      "count": 361,
      "max": [
        0.9115918874740601,
        0.8342947363853455
      ],
      "min": [
        0.08840803056955338,
        0.5599173307418823
      ],
      "type": "VEC2"
    },
    {
      "bufferView": 0,
      "byteOffset": 231228,
      "componentType": 5125,
      "count": 651,
      "type": "SCALAR"
    }
  ],
  "asset": {
    "extras": {
      "author": "Julius Weissmann (https://sketchfab.com/Julius.Weissmann)",
      "license": "CC-BY-4.0 (http://creativecommons.org/licenses/by/4.0/)",
      "source": "https://sketchfab.com/3d-models/asclepius-temple-37701cc6414242cfb5f2ada6131a2e73",
      "title": "Asclepius temple"
    },
    "generator": "Sketchfab-12.67.0",
    "version": "2.0"
  },
  "bufferViews": [
    {
      "buffer": 0,
      "byteLength": 233832,
      "name": "floatBufferViews",
      "target": 34963
    },
    {
      "buffer": 0,
      "byteLength": 146016,
      "byteOffset": 233832,
      "byteStride": 8,
      "name": "floatBufferViews",
      "target": 34962
    },
    {
      "buffer": 0,
      "byteLength": 438048,
      "byteOffset": 379848,
      "byteStride": 12,
      "name": "floatBufferViews",
      "target": 34962
    }
  ],
  "buffers": [
    {
      "byteLength": 817896,
      "uri": "scene.bin"
    }
  ],
  "materials": [
    {
      "doubleSided": true,
      "name": "Material_26",
      "pbrMetallicRoughness": {
        "metallicFactor": 0.0,
        "roughnessFactor": 0.6
      }
    },
    {
      "doubleSided": true,
      "name": "Material_27",
      "pbrMetallicRoughness": {
        "metallicFactor": 0.0,
        "roughnessFactor": 0.6
      }
    }
  ],
  "meshes": [
    {
      "name": "Dach_Material #26_0",
      "primitives": [
        {
          "attributes": {
            "NORMAL": 1,
            "POSITION": 0,
            "TEXCOORD_0": 2
          },
          "indices": 3,
          "material": 0,
          "mode": 4
        }
      ]
    },
    {
      "name": "Dach_Material #27_0",
      "primitives": [
        {
          "attributes": {
            "NORMAL": 5,
            "POSITION": 4,
            "TEXCOORD_0": 6
          },
          "indices": 7,
          "material": 1,
          "mode": 4
        }
      ]
    }
  ],
  "nodes": [
    {
      "children": [
        1
      ],
      "matrix": [
        0.0010748861823230982,
        0.0,
        0.0,
        0.0,
        0.0,
        2.386726776933075e-19,
        -0.0010748861823230982,
        0.0,
        0.0,
        0.0010748861823230982,
        2.386726776933075e-19,
        0.0,
        0.0,
        0.0,
        0.0,
        1.0
      ],
      "name": "Sketchfab_model"
    },
    {
      "children": [
        2
      ],
      "matrix": [
        1.0,
        0.0,
        0.0,
        0.0,
        0.0,
        0.0,
        1.0,
        0.0,
        0.0,
        -1.0,
        0.0,
        0.0,
        0.0,
        0.0,
        0.0,
        1.0
      ],
      "name": "bc7e13f496534454b7bacc325c81025c.fbx"
    },
    {
      "children": [
        3
      ],
      "name": "RootNode"
    },
    {
      "children": [
        4,
        5
      ],
      "matrix": [
        1.0,
        0.0,
        0.0,
        0.0,
        0.0,
        0.999999999999999,
        4.371138828673792e-08,
        0.0,
        0.0,
        -4.371138828673792e-08,
        0.999999999999999,
        0.0,
        1.1387510982314032e-28,
        9857.375,
        -5.005249686940161e-13,
        1.0
      ],
      "name": "Dach"
    },
    {
      "mesh": 0,
      "name": "Dach_Material #26_0"
    },
    {
      "mesh": 1,
      "name": "Dach_Material #27_0"
    }
  ],
  "scene": 0,
  "scenes": [
    {
      "name": "Sketchfab_Scene",
      "nodes": [
        0
      ]
    }
  ]
}
